<?xml version="1.0" encoding="utf-8"?>
<!-- Generator: Adobe Illustrator 16.0.0, SVG Export Plug-In . SVG Version: 6.00 Build 0)  -->
<!DOCTYPE svg PUBLIC "-//W3C//DTD SVG 1.1//EN" "http://www.w3.org/Graphics/SVG/1.1/DTD/svg11.dtd">
<svg version="1.1" id="Layer_1" xmlns="http://www.w3.org/2000/svg" xmlns:xlink="http://www.w3.org/1999/xlink" x="0px" y="0px"
	 width="510.236px" height="510.236px" viewBox="0 0 510.236 510.236" enable-background="new 0 0 510.236 510.236"
	 xml:space="preserve">
<g>
	<g>
		
			<line fill="none" stroke="#FED600" stroke-width="1.8429" stroke-linecap="round" stroke-miterlimit="10" x1="20.764" y1="481.368" x2="24.525" y2="485.129"/>
		
			<line fill="none" stroke="#88D4F6" stroke-width="1.8429" stroke-linecap="round" stroke-miterlimit="10" x1="20.764" y1="481.368" x2="31.893" y2="481.368"/>
		<path fill="none" stroke="#88D4F6" stroke-width="1.8429" stroke-linecap="round" stroke-miterlimit="10" d="M32.146,481.368
			c1.126,0,2.039-0.912,2.039-2.039c0-1.125-0.913-2.037-2.039-2.037h-2.801"/>
		
			<line fill="none" stroke="#C9188B" stroke-width="1.8429" stroke-linecap="round" stroke-miterlimit="10" x1="24.525" y1="477.547" x2="20.764" y2="481.309"/>
	</g>
	<g>
		
			<line fill="none" stroke="#FED600" stroke-width="1.8429" stroke-linecap="round" stroke-miterlimit="10" x1="21.528" y1="424.454" x2="26.062" y2="428.987"/>
		
			<line fill="none" stroke="#88D4F6" stroke-width="1.8429" stroke-linecap="round" stroke-miterlimit="10" x1="26.062" y1="419.848" x2="21.528" y2="424.381"/>
	</g>
	<g>
		
			<line fill="none" stroke="#88D4F6" stroke-width="1.8429" stroke-linecap="round" stroke-miterlimit="10" x1="30.415" y1="419.848" x2="34.949" y2="424.381"/>
		
			<line fill="none" stroke="#FED600" stroke-width="1.8429" stroke-linecap="round" stroke-miterlimit="10" x1="34.949" y1="424.454" x2="30.415" y2="428.987"/>
	</g>
	<g>
		<path fill="none" stroke="#88D4F6" stroke-width="1.8429" stroke-linecap="round" stroke-miterlimit="10" d="M256.242,310.958
			c1.417,0,2.565,1.148,2.565,2.564s-1.148,2.564-2.565,2.564c-1.417,0-2.565-1.148-2.565-2.564"/>
		<path fill="none" stroke="#C9188B" stroke-width="1.8429" stroke-linecap="round" stroke-miterlimit="10" d="M255.808,310.92
			c-1.21-0.207-2.131-1.26-2.131-2.529c0-1.416,1.148-2.564,2.565-2.564c1.417,0,2.565,1.148,2.565,2.564"/>
		
			<line fill="none" stroke="#FED600" stroke-width="1.8429" stroke-linecap="round" stroke-miterlimit="10" x1="256.195" y1="318.098" x2="256.195" y2="304.454"/>
		<path fill="none" stroke="#C9188B" stroke-width="1.8429" stroke-linecap="round" stroke-miterlimit="10" d="M254.804,306.268
			c0.41-0.279,0.905-0.441,1.438-0.441c1.417,0,2.565,1.148,2.565,2.564"/>
		<path fill="none" stroke="#88D4F6" stroke-width="1.8429" stroke-linecap="round" stroke-miterlimit="10" d="M257.676,315.649
			c-0.41,0.277-0.903,0.438-1.435,0.438c-1.417,0-2.565-1.148-2.565-2.564"/>
	</g>
	<g>
		
			<line fill="none" stroke="#C9188B" stroke-width="1.8429" stroke-linecap="round" stroke-miterlimit="10" x1="314.371" y1="427.184" x2="317.447" y2="430.09"/>
		
			<line fill="none" stroke="#C9188B" stroke-width="1.8429" stroke-linecap="round" stroke-miterlimit="10" x1="314.371" y1="427.184" x2="316.307" y2="423.756"/>
		<path fill="none" stroke="#C9188B" stroke-width="1.8429" stroke-linecap="round" stroke-miterlimit="10" d="M310.139,424.549
			c-1.355-0.277-2.377-1.477-2.377-2.916c0-1.643,1.334-2.977,2.977-2.977c0.867,0,1.646,0.371,2.189,0.961"/>
		
			<circle fill="none" stroke="#88D4F6" stroke-width="1.8429" stroke-linecap="round" stroke-miterlimit="10" cx="310.738" cy="427.586" r="2.977"/>
	</g>
	<g>
		
			<line fill="none" stroke="#C9188B" stroke-width="1.8429" stroke-linecap="round" stroke-miterlimit="10" x1="31.646" y1="256.983" x2="34.724" y2="259.887"/>
		
			<line fill="none" stroke="#C9188B" stroke-width="1.8429" stroke-linecap="round" stroke-miterlimit="10" x1="31.646" y1="256.983" x2="33.583" y2="253.556"/>
		<path fill="none" stroke="#C9188B" stroke-width="1.8429" stroke-linecap="round" stroke-miterlimit="10" d="M27.415,254.348
			c-1.356-0.277-2.376-1.477-2.376-2.916c0-1.644,1.332-2.976,2.976-2.976c0.866,0,1.646,0.37,2.189,0.96"/>
		
			<circle fill="none" stroke="#88D4F6" stroke-width="1.8429" stroke-linecap="round" stroke-miterlimit="10" cx="28.015" cy="257.383" r="2.976"/>
	</g>
	
		<line fill="none" stroke="#FED600" stroke-width="1.6893" stroke-linecap="round" stroke-miterlimit="10" x1="364.281" y1="193.945" x2="367.434" y2="193.945"/>
	<g>
		
			<line fill="none" stroke="#FED600" stroke-width="1.6893" stroke-linecap="round" stroke-miterlimit="10" x1="81.138" y1="24.125" x2="84.291" y2="24.125"/>
		
			<line fill="none" stroke="#88D4F6" stroke-width="1.6893" stroke-linecap="round" stroke-miterlimit="10" x1="81.027" y1="24.125" x2="81.027" y2="32.457"/>
		
			<line fill="none" stroke="#C9188B" stroke-width="1.6893" stroke-linecap="round" stroke-miterlimit="10" x1="81.138" y1="32.457" x2="84.291" y2="32.457"/>
	</g>
	<g>
		
			<line fill="none" stroke="#C9188B" stroke-width="1.8429" stroke-linecap="round" stroke-miterlimit="10" x1="88.454" y1="87.324" x2="91.531" y2="90.229"/>
		
			<line fill="none" stroke="#C9188B" stroke-width="1.8429" stroke-linecap="round" stroke-miterlimit="10" x1="88.454" y1="87.324" x2="90.39" y2="83.897"/>
		<path fill="none" stroke="#C9188B" stroke-width="1.8429" stroke-linecap="round" stroke-miterlimit="10" d="M84.222,84.689
			c-1.356-0.277-2.376-1.478-2.376-2.916c0-1.644,1.332-2.976,2.976-2.976c0.866,0,1.646,0.37,2.19,0.96"/>
		
			<circle fill="none" stroke="#88D4F6" stroke-width="1.8429" stroke-linecap="round" stroke-miterlimit="10" cx="84.822" cy="87.726" r="2.976"/>
	</g>
	<g>
		
			<line fill="none" stroke="#FED600" stroke-width="1.8429" stroke-linecap="round" stroke-miterlimit="10" x1="199.565" y1="147.216" x2="199.565" y2="147.216"/>
		
			<line fill="none" stroke="#C9188B" stroke-width="1.8429" stroke-linecap="round" stroke-miterlimit="10" x1="199.585" y1="143.62" x2="199.585" y2="135.672"/>
	</g>
	<g>
		
			<line fill="none" stroke="#88D4F6" stroke-width="1.8429" stroke-linecap="round" stroke-miterlimit="10" x1="259.295" y1="25.156" x2="256.343" y2="22.204"/>
		
			<line fill="none" stroke="#C9188B" stroke-width="1.8429" stroke-linecap="round" stroke-miterlimit="10" x1="256.257" y1="33.88" x2="256.257" y2="22.335"/>
		
			<line fill="none" stroke="#FED600" stroke-width="1.8429" stroke-linecap="round" stroke-miterlimit="10" x1="253.391" y1="25.156" x2="256.343" y2="22.204"/>
	</g>
	
		<line fill="none" stroke="#88D4F6" stroke-width="1.8429" stroke-linecap="round" stroke-miterlimit="10" x1="139.62" y1="33.987" x2="146.251" y2="22.501"/>
	<g>
		
			<line fill="none" stroke="#FED600" stroke-width="1.8429" stroke-linecap="round" stroke-miterlimit="10" x1="196.966" y1="34.257" x2="196.966" y2="22.713"/>
		
			<line fill="none" stroke="#88D4F6" stroke-width="1.8429" stroke-linecap="round" stroke-miterlimit="10" x1="202.8" y1="34.257" x2="202.8" y2="22.713"/>
		
			<line fill="none" stroke="#C9188B" stroke-width="1.8429" stroke-linecap="round" stroke-miterlimit="10" x1="194.11" y1="25.568" x2="205.655" y2="25.568"/>
		
			<line fill="none" stroke="#C9188B" stroke-width="1.8429" stroke-linecap="round" stroke-miterlimit="10" x1="194.11" y1="31.402" x2="205.655" y2="31.402"/>
		
			<line fill="none" stroke="#88D4F6" stroke-width="1.8429" stroke-linecap="round" stroke-miterlimit="10" x1="202.8" y1="34.257" x2="202.8" y2="28.666"/>
		
			<line fill="none" stroke="#FED600" stroke-width="1.8429" stroke-linecap="round" stroke-miterlimit="10" x1="196.966" y1="28.666" x2="196.966" y2="22.713"/>
	</g>
	<path fill="none" stroke="#C9188B" stroke-width="1.8429" stroke-linecap="round" stroke-miterlimit="10" d="M314.822,23.144h1.477
		c1.223,0,2.215,0.992,2.215,2.216v5.864c0,1.224-0.992,2.215-2.215,2.215h-1.477"/>
	<path fill="none" stroke="#88D4F6" stroke-width="1.8429" stroke-linecap="round" stroke-miterlimit="10" d="M310.996,23.144
		h-1.477c-1.223,0-2.215,0.992-2.215,2.216v5.864c0,1.224,0.992,2.215,2.215,2.215h1.477"/>
	
		<line fill="none" stroke="#88D4F6" stroke-width="1.8429" stroke-linecap="round" stroke-miterlimit="10" x1="314.246" y1="79.928" x2="314.246" y2="79.928"/>
	<path fill="none" stroke="#C9188B" stroke-width="1.8429" stroke-linecap="round" stroke-miterlimit="10" d="M314.246,86.171
		c-0.127,2.03-1.875,3.571-3.904,3.444"/>
	
		<line fill="none" stroke="#C9188B" stroke-width="1.8429" stroke-linecap="round" stroke-miterlimit="10" x1="205.334" y1="89.206" x2="205.334" y2="80.369"/>
	
		<line fill="none" stroke="#88D4F6" stroke-width="1.8429" stroke-linecap="round" stroke-miterlimit="10" x1="198.852" y1="86.988" x2="201.111" y2="84.728"/>
	
		<line fill="none" stroke="#C9188B" stroke-width="1.8429" stroke-linecap="round" stroke-miterlimit="10" x1="192.173" y1="84.662" x2="201.01" y2="84.662"/>
	
		<line fill="none" stroke="#FED600" stroke-width="1.8429" stroke-linecap="round" stroke-miterlimit="10" x1="198.852" y1="82.467" x2="201.111" y2="84.728"/>
	
		<line fill="none" stroke="#C9188B" stroke-width="1.8429" stroke-linecap="round" stroke-miterlimit="10" x1="35.347" y1="143.45" x2="23.802" y2="143.45"/>
	<g>
		<path fill="none" stroke="#88D4F6" stroke-width="1.8429" stroke-linecap="round" stroke-miterlimit="10" d="M312.908,141.137
			c1.418,0,2.566,1.149,2.566,2.565s-1.148,2.565-2.566,2.565c-1.416,0-2.564-1.148-2.564-2.565"/>
		<path fill="none" stroke="#C9188B" stroke-width="1.8429" stroke-linecap="round" stroke-miterlimit="10" d="M312.475,141.1
			c-1.209-0.206-2.131-1.26-2.131-2.528c0-1.417,1.148-2.565,2.564-2.565c1.418,0,2.566,1.148,2.566,2.565"/>
		
			<line fill="none" stroke="#FED600" stroke-width="1.8429" stroke-linecap="round" stroke-miterlimit="10" x1="312.861" y1="148.278" x2="312.861" y2="134.634"/>
		<path fill="none" stroke="#C9188B" stroke-width="1.8429" stroke-linecap="round" stroke-miterlimit="10" d="M311.471,136.447
			c0.41-0.278,0.904-0.441,1.438-0.441c1.418,0,2.566,1.148,2.566,2.565"/>
		<path fill="none" stroke="#88D4F6" stroke-width="1.8429" stroke-linecap="round" stroke-miterlimit="10" d="M314.344,145.829
			c-0.41,0.276-0.904,0.438-1.436,0.438c-1.416,0-2.564-1.148-2.564-2.565"/>
	</g>
	
		<line fill="none" stroke="#FED600" stroke-width="1.8429" stroke-linecap="round" stroke-miterlimit="10" x1="262.014" y1="84.868" x2="250.47" y2="84.868"/>
	
		<line fill="none" stroke="#FED600" stroke-width="1.8429" stroke-linecap="round" stroke-miterlimit="10" x1="135.673" y1="141.792" x2="139.434" y2="145.554"/>
	
		<line fill="none" stroke="#88D4F6" stroke-width="1.8429" stroke-linecap="round" stroke-miterlimit="10" x1="135.673" y1="141.792" x2="146.802" y2="141.792"/>
	<path fill="none" stroke="#88D4F6" stroke-width="1.8429" stroke-linecap="round" stroke-miterlimit="10" d="M147.055,141.792
		c1.126,0,2.039-0.913,2.039-2.039s-0.913-2.039-2.039-2.039h-2.801"/>
	
		<line fill="none" stroke="#C9188B" stroke-width="1.8429" stroke-linecap="round" stroke-miterlimit="10" x1="139.434" y1="137.971" x2="135.673" y2="141.732"/>
	<g>
		
			<line fill="none" stroke="#C9188B" stroke-width="1.8429" stroke-linecap="round" stroke-miterlimit="10" x1="26.258" y1="79.125" x2="32.89" y2="90.61"/>
		
			<line fill="none" stroke="#FED600" stroke-width="1.8429" stroke-linecap="round" stroke-miterlimit="10" x1="22.943" y1="84.867" x2="36.206" y2="84.867"/>
		
			<line fill="none" stroke="#88D4F6" stroke-width="1.8429" stroke-linecap="round" stroke-miterlimit="10" x1="26.258" y1="90.61" x2="32.89" y2="79.125"/>
	</g>
	<g>
		
			<line fill="none" stroke="#C9188B" stroke-width="1.6893" stroke-linecap="round" stroke-miterlimit="10" x1="91.23" y1="32.457" x2="88.077" y2="32.457"/>
		
			<line fill="none" stroke="#88D4F6" stroke-width="1.6893" stroke-linecap="round" stroke-miterlimit="10" x1="91.23" y1="24.125" x2="91.23" y2="32.457"/>
		
			<line fill="none" stroke="#FED600" stroke-width="1.6893" stroke-linecap="round" stroke-miterlimit="10" x1="91.23" y1="24.125" x2="88.077" y2="24.125"/>
	</g>
	
		<line fill="none" stroke="#C9188B" stroke-width="1.8429" stroke-linecap="round" stroke-miterlimit="10" x1="35.347" y1="28.291" x2="23.802" y2="28.291"/>
	
		<line fill="none" stroke="#88D4F6" stroke-width="1.8429" stroke-linecap="round" stroke-miterlimit="10" x1="80.826" y1="147.187" x2="87.457" y2="135.701"/>
	
		<line fill="none" stroke="#C9188B" stroke-width="1.8429" stroke-linecap="round" stroke-miterlimit="10" x1="85.026" y1="147.187" x2="91.657" y2="135.701"/>
	
		<line fill="none" stroke="#C9188B" stroke-width="1.8429" stroke-linecap="round" stroke-miterlimit="10" x1="318.066" y1="313.807" x2="306.521" y2="313.807"/>
	
		<line fill="none" stroke="#C9188B" stroke-width="1.8429" stroke-linecap="round" stroke-miterlimit="10" x1="308.979" y1="249.481" x2="315.609" y2="260.967"/>
	
		<line fill="none" stroke="#FED600" stroke-width="1.8429" stroke-linecap="round" stroke-miterlimit="10" x1="305.662" y1="255.224" x2="318.926" y2="255.224"/>
	
		<line fill="none" stroke="#88D4F6" stroke-width="1.8429" stroke-linecap="round" stroke-miterlimit="10" x1="308.979" y1="260.967" x2="315.609" y2="249.481"/>
	
		<line fill="none" stroke="#88D4F6" stroke-width="1.8429" stroke-linecap="round" stroke-miterlimit="10" x1="312.293" y1="192.876" x2="312.293" y2="204.42"/>
	
		<line fill="none" stroke="#C9188B" stroke-width="1.8429" stroke-linecap="round" stroke-miterlimit="10" x1="318.066" y1="198.648" x2="306.521" y2="198.648"/>
	
		<line fill="none" stroke="#FED600" stroke-width="1.8429" stroke-linecap="round" stroke-miterlimit="10" x1="252.482" y1="140.134" x2="260.002" y2="140.135"/>
	
		<line fill="none" stroke="#C9188B" stroke-width="1.8429" stroke-linecap="round" stroke-miterlimit="10" x1="252.482" y1="143.45" x2="260.002" y2="143.45"/>
	<g>
		
			<line fill="none" stroke="#FED600" stroke-width="1.8429" stroke-linecap="round" stroke-miterlimit="10" x1="136.243" y1="84.903" x2="140.776" y2="89.437"/>
		
			<line fill="none" stroke="#88D4F6" stroke-width="1.8429" stroke-linecap="round" stroke-miterlimit="10" x1="140.776" y1="80.298" x2="136.243" y2="84.831"/>
	</g>
	<g>
		
			<line fill="none" stroke="#88D4F6" stroke-width="1.8429" stroke-linecap="round" stroke-miterlimit="10" x1="145.129" y1="80.298" x2="149.663" y2="84.831"/>
		
			<line fill="none" stroke="#FED600" stroke-width="1.8429" stroke-linecap="round" stroke-miterlimit="10" x1="149.663" y1="84.903" x2="145.129" y2="89.437"/>
	</g>
	<g>
		
			<line fill="none" stroke="#C9188B" stroke-width="1.8429" stroke-linecap="round" stroke-miterlimit="10" x1="428.264" y1="87.324" x2="431.34" y2="90.229"/>
		
			<line fill="none" stroke="#C9188B" stroke-width="1.8429" stroke-linecap="round" stroke-miterlimit="10" x1="428.264" y1="87.324" x2="430.199" y2="83.897"/>
		<path fill="none" stroke="#C9188B" stroke-width="1.8429" stroke-linecap="round" stroke-miterlimit="10" d="M424.031,84.689
			c-1.355-0.277-2.377-1.478-2.377-2.916c0-1.644,1.334-2.976,2.977-2.976c0.867,0,1.646,0.37,2.189,0.96"/>
		
			<circle fill="none" stroke="#88D4F6" stroke-width="1.8429" stroke-linecap="round" stroke-miterlimit="10" cx="424.631" cy="87.726" r="2.977"/>
	</g>
	<g>
		
			<line fill="none" stroke="#C9188B" stroke-width="1.8429" stroke-linecap="round" stroke-miterlimit="10" x1="366.068" y1="79.125" x2="372.699" y2="90.61"/>
		
			<line fill="none" stroke="#FED600" stroke-width="1.8429" stroke-linecap="round" stroke-miterlimit="10" x1="362.752" y1="84.867" x2="376.016" y2="84.867"/>
		
			<line fill="none" stroke="#88D4F6" stroke-width="1.8429" stroke-linecap="round" stroke-miterlimit="10" x1="366.068" y1="90.61" x2="372.699" y2="79.125"/>
	</g>
	<g>
		
			<line fill="none" stroke="#FED600" stroke-width="1.8429" stroke-linecap="round" stroke-miterlimit="10" x1="476.053" y1="84.903" x2="480.586" y2="89.437"/>
		
			<line fill="none" stroke="#88D4F6" stroke-width="1.8429" stroke-linecap="round" stroke-miterlimit="10" x1="480.586" y1="80.298" x2="476.053" y2="84.831"/>
	</g>
	<g>
		
			<line fill="none" stroke="#88D4F6" stroke-width="1.8429" stroke-linecap="round" stroke-miterlimit="10" x1="484.939" y1="80.298" x2="489.473" y2="84.831"/>
		
			<line fill="none" stroke="#FED600" stroke-width="1.8429" stroke-linecap="round" stroke-miterlimit="10" x1="489.473" y1="84.903" x2="484.939" y2="89.437"/>
	</g>
	<g>
		
			<line fill="none" stroke="#FED600" stroke-width="1.8429" stroke-linecap="round" stroke-miterlimit="10" x1="142.898" y1="317.036" x2="142.898" y2="317.036"/>
		
			<line fill="none" stroke="#C9188B" stroke-width="1.8429" stroke-linecap="round" stroke-miterlimit="10" x1="142.918" y1="313.44" x2="142.918" y2="305.493"/>
	</g>
	<g>
		
			<line fill="none" stroke="#88D4F6" stroke-width="1.8429" stroke-linecap="round" stroke-miterlimit="10" x1="202.628" y1="194.976" x2="199.676" y2="192.023"/>
		
			<line fill="none" stroke="#C9188B" stroke-width="1.8429" stroke-linecap="round" stroke-miterlimit="10" x1="199.59" y1="203.7" x2="199.59" y2="192.155"/>
		
			<line fill="none" stroke="#FED600" stroke-width="1.8429" stroke-linecap="round" stroke-miterlimit="10" x1="196.724" y1="194.976" x2="199.676" y2="192.023"/>
	</g>
	
		<line fill="none" stroke="#88D4F6" stroke-width="1.8429" stroke-linecap="round" stroke-miterlimit="10" x1="82.953" y1="203.807" x2="89.584" y2="192.321"/>
	<g>
		
			<line fill="none" stroke="#FED600" stroke-width="1.8429" stroke-linecap="round" stroke-miterlimit="10" x1="140.299" y1="204.077" x2="140.299" y2="192.533"/>
		
			<line fill="none" stroke="#88D4F6" stroke-width="1.8429" stroke-linecap="round" stroke-miterlimit="10" x1="146.133" y1="204.077" x2="146.133" y2="192.533"/>
		
			<line fill="none" stroke="#C9188B" stroke-width="1.8429" stroke-linecap="round" stroke-miterlimit="10" x1="137.444" y1="195.388" x2="148.988" y2="195.388"/>
		
			<line fill="none" stroke="#C9188B" stroke-width="1.8429" stroke-linecap="round" stroke-miterlimit="10" x1="137.444" y1="201.222" x2="148.988" y2="201.222"/>
		
			<line fill="none" stroke="#88D4F6" stroke-width="1.8429" stroke-linecap="round" stroke-miterlimit="10" x1="146.133" y1="204.077" x2="146.133" y2="198.485"/>
		
			<line fill="none" stroke="#FED600" stroke-width="1.8429" stroke-linecap="round" stroke-miterlimit="10" x1="140.299" y1="198.485" x2="140.299" y2="192.533"/>
	</g>
	<path fill="none" stroke="#C9188B" stroke-width="1.8429" stroke-linecap="round" stroke-miterlimit="10" d="M258.156,192.963
		h1.476c1.224,0,2.215,0.992,2.215,2.216v5.864c0,1.224-0.992,2.215-2.215,2.215h-1.476"/>
	<path fill="none" stroke="#88D4F6" stroke-width="1.8429" stroke-linecap="round" stroke-miterlimit="10" d="M254.329,192.963
		h-1.476c-1.224,0-2.216,0.992-2.216,2.216v5.864c0,1.224,0.992,2.215,2.216,2.215h1.476"/>
	
		<line fill="none" stroke="#88D4F6" stroke-width="1.8429" stroke-linecap="round" stroke-miterlimit="10" x1="257.58" y1="249.748" x2="257.58" y2="249.748"/>
	<path fill="none" stroke="#C9188B" stroke-width="1.8429" stroke-linecap="round" stroke-miterlimit="10" d="M257.58,255.991
		c-0.127,2.029-1.876,3.572-3.906,3.443"/>
	
		<line fill="none" stroke="#C9188B" stroke-width="1.8429" stroke-linecap="round" stroke-miterlimit="10" x1="148.667" y1="259.026" x2="148.667" y2="250.188"/>
	
		<line fill="none" stroke="#88D4F6" stroke-width="1.8429" stroke-linecap="round" stroke-miterlimit="10" x1="142.185" y1="256.807" x2="144.445" y2="254.547"/>
	
		<line fill="none" stroke="#C9188B" stroke-width="1.8429" stroke-linecap="round" stroke-miterlimit="10" x1="135.506" y1="254.482" x2="144.344" y2="254.482"/>
	
		<line fill="none" stroke="#FED600" stroke-width="1.8429" stroke-linecap="round" stroke-miterlimit="10" x1="142.185" y1="252.287" x2="144.445" y2="254.547"/>
	
		<line fill="none" stroke="#FED600" stroke-width="1.8429" stroke-linecap="round" stroke-miterlimit="10" x1="205.347" y1="254.688" x2="193.803" y2="254.688"/>
	<g>
		
			<line fill="none" stroke="#FED600" stroke-width="1.8429" stroke-linecap="round" stroke-miterlimit="10" x1="79.006" y1="311.612" x2="82.768" y2="315.374"/>
		
			<line fill="none" stroke="#88D4F6" stroke-width="1.8429" stroke-linecap="round" stroke-miterlimit="10" x1="79.006" y1="311.612" x2="90.135" y2="311.612"/>
		<path fill="none" stroke="#88D4F6" stroke-width="1.8429" stroke-linecap="round" stroke-miterlimit="10" d="M90.388,311.612
			c1.126,0,2.039-0.912,2.039-2.039c0-1.125-0.913-2.037-2.039-2.037h-2.801"/>
		
			<line fill="none" stroke="#C9188B" stroke-width="1.8429" stroke-linecap="round" stroke-miterlimit="10" x1="82.768" y1="307.792" x2="79.006" y2="311.553"/>
	</g>
	<g>
		
			<line fill="none" stroke="#C9188B" stroke-width="1.6893" stroke-linecap="round" stroke-miterlimit="10" x1="34.563" y1="202.277" x2="31.41" y2="202.277"/>
		
			<line fill="none" stroke="#88D4F6" stroke-width="1.6893" stroke-linecap="round" stroke-miterlimit="10" x1="34.563" y1="193.945" x2="34.563" y2="202.277"/>
		
			<line fill="none" stroke="#FED600" stroke-width="1.6893" stroke-linecap="round" stroke-miterlimit="10" x1="34.563" y1="193.945" x2="31.41" y2="193.945"/>
	</g>
	
		<line fill="none" stroke="#88D4F6" stroke-width="1.8429" stroke-linecap="round" stroke-miterlimit="10" x1="24.159" y1="317.006" x2="30.79" y2="305.52"/>
	
		<line fill="none" stroke="#C9188B" stroke-width="1.8429" stroke-linecap="round" stroke-miterlimit="10" x1="28.359" y1="317.006" x2="34.99" y2="305.52"/>
	
		<line fill="none" stroke="#FED600" stroke-width="1.8429" stroke-linecap="round" stroke-miterlimit="10" x1="195.815" y1="309.954" x2="203.335" y2="309.954"/>
	
		<line fill="none" stroke="#C9188B" stroke-width="1.8429" stroke-linecap="round" stroke-miterlimit="10" x1="195.815" y1="313.27" x2="203.335" y2="313.27"/>
	<g>
		
			<line fill="none" stroke="#FED600" stroke-width="1.8429" stroke-linecap="round" stroke-miterlimit="10" x1="79.576" y1="254.723" x2="84.109" y2="259.256"/>
		
			<line fill="none" stroke="#88D4F6" stroke-width="1.8429" stroke-linecap="round" stroke-miterlimit="10" x1="84.109" y1="250.118" x2="79.576" y2="254.651"/>
	</g>
	<g>
		
			<line fill="none" stroke="#88D4F6" stroke-width="1.8429" stroke-linecap="round" stroke-miterlimit="10" x1="88.462" y1="250.118" x2="92.996" y2="254.651"/>
		
			<line fill="none" stroke="#FED600" stroke-width="1.8429" stroke-linecap="round" stroke-miterlimit="10" x1="92.996" y1="254.723" x2="88.462" y2="259.256"/>
	</g>
	<g>
		
			<line fill="none" stroke="#C9188B" stroke-width="1.8429" stroke-linecap="round" stroke-miterlimit="10" x1="370.871" y1="256.983" x2="373.949" y2="259.887"/>
		
			<line fill="none" stroke="#C9188B" stroke-width="1.8429" stroke-linecap="round" stroke-miterlimit="10" x1="370.871" y1="256.983" x2="372.809" y2="253.556"/>
		<path fill="none" stroke="#C9188B" stroke-width="1.8429" stroke-linecap="round" stroke-miterlimit="10" d="M366.641,254.348
			c-1.357-0.277-2.377-1.477-2.377-2.916c0-1.644,1.332-2.976,2.977-2.976c0.865,0,1.645,0.37,2.189,0.96"/>
		
			<circle fill="none" stroke="#88D4F6" stroke-width="1.8429" stroke-linecap="round" stroke-miterlimit="10" cx="367.239" cy="257.383" r="2.976"/>
	</g>
	
		<line fill="none" stroke="#C9188B" stroke-width="1.8429" stroke-linecap="round" stroke-miterlimit="10" x1="487.893" y1="259.026" x2="487.893" y2="250.188"/>
	
		<line fill="none" stroke="#88D4F6" stroke-width="1.8429" stroke-linecap="round" stroke-miterlimit="10" x1="481.41" y1="256.807" x2="483.67" y2="254.547"/>
	
		<line fill="none" stroke="#C9188B" stroke-width="1.8429" stroke-linecap="round" stroke-miterlimit="10" x1="474.73" y1="254.482" x2="483.568" y2="254.482"/>
	
		<line fill="none" stroke="#FED600" stroke-width="1.8429" stroke-linecap="round" stroke-miterlimit="10" x1="481.41" y1="252.287" x2="483.67" y2="254.547"/>
	<g>
		
			<line fill="none" stroke="#FED600" stroke-width="1.8429" stroke-linecap="round" stroke-miterlimit="10" x1="418.801" y1="254.723" x2="423.334" y2="259.256"/>
		
			<line fill="none" stroke="#88D4F6" stroke-width="1.8429" stroke-linecap="round" stroke-miterlimit="10" x1="423.334" y1="250.118" x2="418.801" y2="254.651"/>
	</g>
	<g>
		
			<line fill="none" stroke="#88D4F6" stroke-width="1.8429" stroke-linecap="round" stroke-miterlimit="10" x1="427.688" y1="250.118" x2="432.221" y2="254.651"/>
		
			<line fill="none" stroke="#FED600" stroke-width="1.8429" stroke-linecap="round" stroke-miterlimit="10" x1="432.221" y1="254.723" x2="427.688" y2="259.256"/>
	</g>
	
		<line fill="none" stroke="#C9188B" stroke-width="1.8429" stroke-linecap="round" stroke-miterlimit="10" x1="260.036" y1="483.741" x2="248.492" y2="483.741"/>
	
		<line fill="none" stroke="#C9188B" stroke-width="1.8429" stroke-linecap="round" stroke-miterlimit="10" x1="250.948" y1="419.417" x2="257.58" y2="430.903"/>
	
		<line fill="none" stroke="#FED600" stroke-width="1.8429" stroke-linecap="round" stroke-miterlimit="10" x1="247.632" y1="425.159" x2="260.895" y2="425.159"/>
	
		<line fill="none" stroke="#88D4F6" stroke-width="1.8429" stroke-linecap="round" stroke-miterlimit="10" x1="250.948" y1="430.903" x2="257.58" y2="419.417"/>
	
		<line fill="none" stroke="#88D4F6" stroke-width="1.8429" stroke-linecap="round" stroke-miterlimit="10" x1="254.264" y1="362.342" x2="254.264" y2="373.885"/>
	
		<line fill="none" stroke="#C9188B" stroke-width="1.8429" stroke-linecap="round" stroke-miterlimit="10" x1="260.036" y1="368.114" x2="248.492" y2="368.114"/>
	<g>
		
			<line fill="none" stroke="#FED600" stroke-width="1.8429" stroke-linecap="round" stroke-miterlimit="10" x1="84.868" y1="486.971" x2="84.868" y2="486.971"/>
		
			<line fill="none" stroke="#C9188B" stroke-width="1.8429" stroke-linecap="round" stroke-miterlimit="10" x1="84.889" y1="483.375" x2="84.889" y2="475.426"/>
	</g>
	<g>
		
			<line fill="none" stroke="#88D4F6" stroke-width="1.8429" stroke-linecap="round" stroke-miterlimit="10" x1="144.598" y1="364.911" x2="141.646" y2="361.958"/>
		
			<line fill="none" stroke="#C9188B" stroke-width="1.8429" stroke-linecap="round" stroke-miterlimit="10" x1="141.561" y1="373.635" x2="141.561" y2="362.09"/>
		
			<line fill="none" stroke="#FED600" stroke-width="1.8429" stroke-linecap="round" stroke-miterlimit="10" x1="138.694" y1="364.911" x2="141.646" y2="361.958"/>
	</g>
	
		<line fill="none" stroke="#88D4F6" stroke-width="1.8429" stroke-linecap="round" stroke-miterlimit="10" x1="24.923" y1="373.743" x2="31.554" y2="362.256"/>
	<g>
		
			<line fill="none" stroke="#FED600" stroke-width="1.8429" stroke-linecap="round" stroke-miterlimit="10" x1="82.269" y1="374.012" x2="82.269" y2="362.467"/>
		
			<line fill="none" stroke="#88D4F6" stroke-width="1.8429" stroke-linecap="round" stroke-miterlimit="10" x1="88.103" y1="374.012" x2="88.103" y2="362.467"/>
		
			<line fill="none" stroke="#C9188B" stroke-width="1.8429" stroke-linecap="round" stroke-miterlimit="10" x1="79.414" y1="365.323" x2="90.958" y2="365.323"/>
		
			<line fill="none" stroke="#C9188B" stroke-width="1.8429" stroke-linecap="round" stroke-miterlimit="10" x1="79.414" y1="371.157" x2="90.958" y2="371.157"/>
		
			<line fill="none" stroke="#88D4F6" stroke-width="1.8429" stroke-linecap="round" stroke-miterlimit="10" x1="88.103" y1="374.012" x2="88.103" y2="368.42"/>
		
			<line fill="none" stroke="#FED600" stroke-width="1.8429" stroke-linecap="round" stroke-miterlimit="10" x1="82.269" y1="368.42" x2="82.269" y2="362.467"/>
	</g>
	<path fill="none" stroke="#C9188B" stroke-width="1.8429" stroke-linecap="round" stroke-miterlimit="10" d="M200.125,362.899
		h1.476c1.224,0,2.215,0.992,2.215,2.215v5.865c0,1.223-0.992,2.215-2.215,2.215h-1.476"/>
	<path fill="none" stroke="#88D4F6" stroke-width="1.8429" stroke-linecap="round" stroke-miterlimit="10" d="M196.298,362.899
		h-1.476c-1.224,0-2.215,0.992-2.215,2.215v5.865c0,1.223,0.992,2.215,2.215,2.215h1.476"/>
	
		<line fill="none" stroke="#88D4F6" stroke-width="1.8429" stroke-linecap="round" stroke-miterlimit="10" x1="199.55" y1="419.682" x2="199.55" y2="419.682"/>
	<path fill="none" stroke="#C9188B" stroke-width="1.8429" stroke-linecap="round" stroke-miterlimit="10" d="M199.55,425.926
		c-0.128,2.029-1.876,3.57-3.906,3.443"/>
	
		<line fill="none" stroke="#C9188B" stroke-width="1.8429" stroke-linecap="round" stroke-miterlimit="10" x1="90.637" y1="428.961" x2="90.637" y2="420.124"/>
	
		<line fill="none" stroke="#88D4F6" stroke-width="1.8429" stroke-linecap="round" stroke-miterlimit="10" x1="84.154" y1="426.743" x2="86.415" y2="424.483"/>
	
		<line fill="none" stroke="#C9188B" stroke-width="1.8429" stroke-linecap="round" stroke-miterlimit="10" x1="77.476" y1="424.417" x2="86.313" y2="424.417"/>
	
		<line fill="none" stroke="#FED600" stroke-width="1.8429" stroke-linecap="round" stroke-miterlimit="10" x1="84.154" y1="422.221" x2="86.415" y2="424.483"/>
	
		<line fill="none" stroke="#FED600" stroke-width="1.8429" stroke-linecap="round" stroke-miterlimit="10" x1="147.317" y1="424.622" x2="135.773" y2="424.622"/>
	
		<line fill="none" stroke="#FED600" stroke-width="1.8429" stroke-linecap="round" stroke-miterlimit="10" x1="137.785" y1="479.889" x2="145.305" y2="479.889"/>
	
		<line fill="none" stroke="#C9188B" stroke-width="1.8429" stroke-linecap="round" stroke-miterlimit="10" x1="137.785" y1="483.206" x2="145.305" y2="483.206"/>
	<g>
		
			<line fill="none" stroke="#88D4F6" stroke-width="1.6893" stroke-linecap="round" stroke-miterlimit="10" x1="306.926" y1="363.983" x2="306.926" y2="372.313"/>
		<g>
			
				<line fill="none" stroke="#C9188B" stroke-width="1.6893" stroke-linecap="round" stroke-miterlimit="10" x1="307.037" y1="372.313" x2="310.189" y2="372.313"/>
			
				<line fill="none" stroke="#FED600" stroke-width="1.6893" stroke-linecap="round" stroke-miterlimit="10" x1="307.037" y1="363.983" x2="310.189" y2="363.983"/>
		</g>
	</g>
	<g>
		
			<line fill="none" stroke="#C9188B" stroke-width="1.6893" stroke-linecap="round" stroke-miterlimit="10" x1="317.129" y1="372.313" x2="313.977" y2="372.313"/>
		
			<line fill="none" stroke="#88D4F6" stroke-width="1.6893" stroke-linecap="round" stroke-miterlimit="10" x1="317.129" y1="363.983" x2="317.129" y2="372.313"/>
		
			<line fill="none" stroke="#FED600" stroke-width="1.6893" stroke-linecap="round" stroke-miterlimit="10" x1="317.129" y1="363.983" x2="313.977" y2="363.983"/>
	</g>
	
		<line fill="none" stroke="#88D4F6" stroke-width="1.8429" stroke-linecap="round" stroke-miterlimit="10" x1="306.725" y1="487.043" x2="313.355" y2="475.557"/>
	
		<line fill="none" stroke="#C9188B" stroke-width="1.8429" stroke-linecap="round" stroke-miterlimit="10" x1="310.924" y1="487.043" x2="317.557" y2="475.557"/>
	
		<line fill="none" stroke="#88D4F6" stroke-width="1.8429" stroke-linecap="round" stroke-miterlimit="10" x1="479.43" y1="33.987" x2="486.061" y2="22.501"/>
	
		<line fill="none" stroke="#C9188B" stroke-width="1.8429" stroke-linecap="round" stroke-miterlimit="10" x1="375.156" y1="143.45" x2="363.611" y2="143.45"/>
	
		<line fill="none" stroke="#FED600" stroke-width="1.8429" stroke-linecap="round" stroke-miterlimit="10" x1="475.482" y1="141.792" x2="479.244" y2="145.554"/>
	
		<line fill="none" stroke="#88D4F6" stroke-width="1.8429" stroke-linecap="round" stroke-miterlimit="10" x1="475.482" y1="141.792" x2="486.611" y2="141.792"/>
	<path fill="none" stroke="#88D4F6" stroke-width="1.8429" stroke-linecap="round" stroke-miterlimit="10" d="M486.865,141.792
		c1.125,0,2.037-0.913,2.037-2.039s-0.912-2.039-2.037-2.039h-2.803"/>
	
		<line fill="none" stroke="#C9188B" stroke-width="1.8429" stroke-linecap="round" stroke-miterlimit="10" x1="479.244" y1="137.971" x2="475.482" y2="141.732"/>
	<g>
		
			<line fill="none" stroke="#FED600" stroke-width="1.6893" stroke-linecap="round" stroke-miterlimit="10" x1="420.947" y1="24.125" x2="424.1" y2="24.125"/>
		
			<line fill="none" stroke="#88D4F6" stroke-width="1.6893" stroke-linecap="round" stroke-miterlimit="10" x1="420.836" y1="24.125" x2="420.836" y2="32.457"/>
		
			<line fill="none" stroke="#C9188B" stroke-width="1.6893" stroke-linecap="round" stroke-miterlimit="10" x1="420.947" y1="32.457" x2="424.1" y2="32.457"/>
		<g>
			
				<line fill="none" stroke="#C9188B" stroke-width="1.6893" stroke-linecap="round" stroke-miterlimit="10" x1="431.039" y1="32.457" x2="427.887" y2="32.457"/>
			
				<line fill="none" stroke="#88D4F6" stroke-width="1.6893" stroke-linecap="round" stroke-miterlimit="10" x1="431.039" y1="24.125" x2="431.039" y2="32.457"/>
			
				<line fill="none" stroke="#FED600" stroke-width="1.6893" stroke-linecap="round" stroke-miterlimit="10" x1="431.039" y1="24.125" x2="427.887" y2="24.125"/>
		</g>
	</g>
	
		<line fill="none" stroke="#88D4F6" stroke-width="1.8429" stroke-linecap="round" stroke-miterlimit="10" x1="369.383" y1="22.519" x2="369.383" y2="34.063"/>
	
		<line fill="none" stroke="#C9188B" stroke-width="1.8429" stroke-linecap="round" stroke-miterlimit="10" x1="375.156" y1="28.291" x2="363.611" y2="28.291"/>
	
		<line fill="none" stroke="#88D4F6" stroke-width="1.8429" stroke-linecap="round" stroke-miterlimit="10" x1="420.635" y1="147.187" x2="427.266" y2="135.701"/>
	
		<line fill="none" stroke="#C9188B" stroke-width="1.8429" stroke-linecap="round" stroke-miterlimit="10" x1="424.836" y1="147.187" x2="431.467" y2="135.701"/>
	<g>
		
			<line fill="none" stroke="#FED600" stroke-width="1.8429" stroke-linecap="round" stroke-miterlimit="10" x1="482.707" y1="317.036" x2="482.707" y2="317.036"/>
		
			<line fill="none" stroke="#C9188B" stroke-width="1.8429" stroke-linecap="round" stroke-miterlimit="10" x1="482.729" y1="313.44" x2="482.729" y2="305.493"/>
	</g>
	
		<line fill="none" stroke="#88D4F6" stroke-width="1.8429" stroke-linecap="round" stroke-miterlimit="10" x1="422.762" y1="203.807" x2="429.393" y2="192.321"/>
	<g>
		
			<line fill="none" stroke="#FED600" stroke-width="1.8429" stroke-linecap="round" stroke-miterlimit="10" x1="480.107" y1="204.077" x2="480.107" y2="192.533"/>
		
			<line fill="none" stroke="#88D4F6" stroke-width="1.8429" stroke-linecap="round" stroke-miterlimit="10" x1="485.941" y1="204.077" x2="485.941" y2="192.533"/>
		
			<line fill="none" stroke="#C9188B" stroke-width="1.8429" stroke-linecap="round" stroke-miterlimit="10" x1="477.252" y1="195.388" x2="488.797" y2="195.388"/>
		
			<line fill="none" stroke="#C9188B" stroke-width="1.8429" stroke-linecap="round" stroke-miterlimit="10" x1="477.252" y1="201.222" x2="488.797" y2="201.222"/>
		
			<line fill="none" stroke="#88D4F6" stroke-width="1.8429" stroke-linecap="round" stroke-miterlimit="10" x1="485.941" y1="204.077" x2="485.941" y2="198.485"/>
		
			<line fill="none" stroke="#FED600" stroke-width="1.8429" stroke-linecap="round" stroke-miterlimit="10" x1="480.107" y1="198.485" x2="480.107" y2="192.533"/>
	</g>
	
		<line fill="none" stroke="#FED600" stroke-width="1.8429" stroke-linecap="round" stroke-miterlimit="10" x1="418.816" y1="311.612" x2="422.576" y2="315.374"/>
	
		<line fill="none" stroke="#88D4F6" stroke-width="1.8429" stroke-linecap="round" stroke-miterlimit="10" x1="418.816" y1="311.612" x2="429.945" y2="311.612"/>
	<path fill="none" stroke="#88D4F6" stroke-width="1.8429" stroke-linecap="round" stroke-miterlimit="10" d="M430.197,311.612
		c1.127,0,2.039-0.912,2.039-2.039c0-1.125-0.912-2.037-2.039-2.037h-2.801"/>
	
		<line fill="none" stroke="#C9188B" stroke-width="1.8429" stroke-linecap="round" stroke-miterlimit="10" x1="422.576" y1="307.792" x2="418.816" y2="311.553"/>
	
		<line fill="none" stroke="#88D4F6" stroke-width="1.6893" stroke-linecap="round" stroke-miterlimit="10" x1="364.17" y1="193.945" x2="364.17" y2="202.277"/>
	
		<line fill="none" stroke="#C9188B" stroke-width="1.6893" stroke-linecap="round" stroke-miterlimit="10" x1="364.281" y1="202.277" x2="367.434" y2="202.277"/>
	<g>
		
			<line fill="none" stroke="#C9188B" stroke-width="1.6893" stroke-linecap="round" stroke-miterlimit="10" x1="374.373" y1="202.277" x2="371.219" y2="202.277"/>
		
			<line fill="none" stroke="#88D4F6" stroke-width="1.6893" stroke-linecap="round" stroke-miterlimit="10" x1="374.373" y1="193.945" x2="374.373" y2="202.277"/>
		
			<line fill="none" stroke="#FED600" stroke-width="1.6893" stroke-linecap="round" stroke-miterlimit="10" x1="374.373" y1="193.945" x2="371.219" y2="193.945"/>
	</g>
	
		<line fill="none" stroke="#88D4F6" stroke-width="1.8429" stroke-linecap="round" stroke-miterlimit="10" x1="363.969" y1="317.006" x2="370.6" y2="305.52"/>
	
		<line fill="none" stroke="#C9188B" stroke-width="1.8429" stroke-linecap="round" stroke-miterlimit="10" x1="368.168" y1="317.006" x2="374.799" y2="305.52"/>
	<g>
		
			<line fill="none" stroke="#FED600" stroke-width="1.8429" stroke-linecap="round" stroke-miterlimit="10" x1="424.678" y1="486.971" x2="424.678" y2="486.971"/>
		
			<line fill="none" stroke="#C9188B" stroke-width="1.8429" stroke-linecap="round" stroke-miterlimit="10" x1="424.697" y1="483.375" x2="424.697" y2="475.426"/>
	</g>
	<g>
		
			<line fill="none" stroke="#88D4F6" stroke-width="1.8429" stroke-linecap="round" stroke-miterlimit="10" x1="484.408" y1="364.911" x2="481.455" y2="361.958"/>
		
			<line fill="none" stroke="#C9188B" stroke-width="1.8429" stroke-linecap="round" stroke-miterlimit="10" x1="481.369" y1="373.635" x2="481.369" y2="362.09"/>
		
			<line fill="none" stroke="#FED600" stroke-width="1.8429" stroke-linecap="round" stroke-miterlimit="10" x1="478.502" y1="364.911" x2="481.455" y2="361.958"/>
	</g>
	
		<line fill="none" stroke="#88D4F6" stroke-width="1.8429" stroke-linecap="round" stroke-miterlimit="10" x1="364.732" y1="373.743" x2="371.363" y2="362.256"/>
	<g>
		
			<line fill="none" stroke="#FED600" stroke-width="1.8429" stroke-linecap="round" stroke-miterlimit="10" x1="422.078" y1="374.012" x2="422.078" y2="362.467"/>
		
			<line fill="none" stroke="#88D4F6" stroke-width="1.8429" stroke-linecap="round" stroke-miterlimit="10" x1="427.912" y1="374.012" x2="427.912" y2="362.467"/>
		
			<line fill="none" stroke="#C9188B" stroke-width="1.8429" stroke-linecap="round" stroke-miterlimit="10" x1="419.223" y1="365.323" x2="430.768" y2="365.323"/>
		
			<line fill="none" stroke="#C9188B" stroke-width="1.8429" stroke-linecap="round" stroke-miterlimit="10" x1="419.223" y1="371.157" x2="430.768" y2="371.157"/>
		
			<line fill="none" stroke="#88D4F6" stroke-width="1.8429" stroke-linecap="round" stroke-miterlimit="10" x1="427.912" y1="374.012" x2="427.912" y2="368.42"/>
		
			<line fill="none" stroke="#FED600" stroke-width="1.8429" stroke-linecap="round" stroke-miterlimit="10" x1="422.078" y1="368.42" x2="422.078" y2="362.467"/>
	</g>
	
		<line fill="none" stroke="#C9188B" stroke-width="1.8429" stroke-linecap="round" stroke-miterlimit="10" x1="430.447" y1="428.961" x2="430.447" y2="420.124"/>
	
		<line fill="none" stroke="#88D4F6" stroke-width="1.8429" stroke-linecap="round" stroke-miterlimit="10" x1="423.963" y1="426.743" x2="426.225" y2="424.483"/>
	
		<line fill="none" stroke="#C9188B" stroke-width="1.8429" stroke-linecap="round" stroke-miterlimit="10" x1="417.285" y1="424.417" x2="426.123" y2="424.417"/>
	
		<line fill="none" stroke="#FED600" stroke-width="1.8429" stroke-linecap="round" stroke-miterlimit="10" x1="423.963" y1="422.221" x2="426.225" y2="424.483"/>
	
		<line fill="none" stroke="#FED600" stroke-width="1.8429" stroke-linecap="round" stroke-miterlimit="10" x1="487.127" y1="424.622" x2="475.582" y2="424.622"/>
	
		<line fill="none" stroke="#FED600" stroke-width="1.8429" stroke-linecap="round" stroke-miterlimit="10" x1="360.785" y1="481.547" x2="364.547" y2="485.309"/>
	
		<line fill="none" stroke="#88D4F6" stroke-width="1.8429" stroke-linecap="round" stroke-miterlimit="10" x1="360.785" y1="481.547" x2="371.914" y2="481.547"/>
	<path fill="none" stroke="#88D4F6" stroke-width="1.8429" stroke-linecap="round" stroke-miterlimit="10" d="M372.168,481.547
		c1.125,0,2.039-0.912,2.039-2.039c0-1.125-0.914-2.039-2.039-2.039h-2.801"/>
	
		<line fill="none" stroke="#C9188B" stroke-width="1.8429" stroke-linecap="round" stroke-miterlimit="10" x1="364.547" y1="477.725" x2="360.785" y2="481.487"/>
	
		<line fill="none" stroke="#FED600" stroke-width="1.8429" stroke-linecap="round" stroke-miterlimit="10" x1="477.594" y1="479.889" x2="485.113" y2="479.889"/>
	
		<line fill="none" stroke="#C9188B" stroke-width="1.8429" stroke-linecap="round" stroke-miterlimit="10" x1="477.594" y1="483.206" x2="485.113" y2="483.206"/>
	<g>
		
			<line fill="none" stroke="#FED600" stroke-width="1.8429" stroke-linecap="round" stroke-miterlimit="10" x1="361.355" y1="424.659" x2="365.889" y2="429.192"/>
		
			<line fill="none" stroke="#88D4F6" stroke-width="1.8429" stroke-linecap="round" stroke-miterlimit="10" x1="365.889" y1="420.053" x2="361.355" y2="424.586"/>
	</g>
	<g>
		
			<line fill="none" stroke="#88D4F6" stroke-width="1.8429" stroke-linecap="round" stroke-miterlimit="10" x1="370.242" y1="420.053" x2="374.775" y2="424.586"/>
		
			<line fill="none" stroke="#FED600" stroke-width="1.8429" stroke-linecap="round" stroke-miterlimit="10" x1="374.775" y1="424.659" x2="370.242" y2="429.192"/>
	</g>
	<g>
		<path fill="none" stroke="#88D4F6" stroke-width="1.8429" stroke-linecap="round" stroke-miterlimit="10" d="M198.165,480.891
			c1.417,0,2.565,1.148,2.565,2.566c0,1.416-1.148,2.564-2.565,2.564s-2.565-1.148-2.565-2.564"/>
		<path fill="none" stroke="#C9188B" stroke-width="1.8429" stroke-linecap="round" stroke-miterlimit="10" d="M197.731,480.856
			c-1.21-0.207-2.132-1.26-2.132-2.529c0-1.418,1.148-2.564,2.565-2.564s2.565,1.146,2.565,2.564"/>
		
			<line fill="none" stroke="#FED600" stroke-width="1.8429" stroke-linecap="round" stroke-miterlimit="10" x1="198.117" y1="488.032" x2="198.117" y2="474.389"/>
		<path fill="none" stroke="#C9188B" stroke-width="1.8429" stroke-linecap="round" stroke-miterlimit="10" d="M196.727,476.202
			c0.41-0.277,0.905-0.439,1.438-0.439c1.417,0,2.565,1.146,2.565,2.564"/>
		<path fill="none" stroke="#88D4F6" stroke-width="1.8429" stroke-linecap="round" stroke-miterlimit="10" d="M199.599,485.584
			c-0.409,0.275-0.903,0.438-1.434,0.438c-1.417,0-2.565-1.148-2.565-2.564"/>
	</g>
</g>
</svg>
